<svg width="30" height="30" viewBox="0 0 30 30" fill="none" xmlns="http://www.w3.org/2000/svg">
<path d="M28.5242 8.775C28.0751 8.14312 27.3439 7.76531 26.5676 7.76531H6.37762L5.8245 5.86406C5.60325 5.10656 5.02575 4.50656 4.27762 4.25812L2.14106 3.54656C1.69856 3.39844 1.22137 3.63844 1.07419 4.08094C0.926999 4.52344 1.16606 5.00062 1.60856 5.14781L3.74606 5.85938C3.96731 5.93344 4.13887 6.11156 4.20356 6.33562L4.92919 8.82656C4.93294 8.83875 4.93669 8.85094 4.94044 8.86313L7.93669 19.1672C8.23294 20.1853 9.18075 20.8959 10.2411 20.8959H23.6604C24.6795 20.8959 25.5898 20.25 25.9254 19.2872L28.8345 10.9547C29.0886 10.2225 28.9732 9.40781 28.5242 8.775ZM27.2398 10.3987L24.3307 18.7322C24.2314 19.0172 23.9604 19.2094 23.6586 19.2094H10.2401C9.92606 19.2094 9.64481 18.9984 9.55669 18.6966L6.86794 9.45375H26.5676C26.8011 9.45375 27.0129 9.56344 27.1479 9.75375C27.2839 9.94219 27.3167 10.1775 27.2398 10.3987Z" fill="black"/>
<path d="M12.4328 25.6528C13.3881 25.6528 14.1625 24.8784 14.1625 23.9231C14.1625 22.9679 13.3881 22.1935 12.4328 22.1935C11.4775 22.1935 10.7031 22.9679 10.7031 23.9231C10.7031 24.8784 11.4775 25.6528 12.4328 25.6528Z" fill="black"/>
<path d="M21.8249 25.6528C22.7802 25.6528 23.5546 24.8784 23.5546 23.9231C23.5546 22.9679 22.7802 22.1935 21.8249 22.1935C20.8696 22.1935 20.0952 22.9679 20.0952 23.9231C20.0952 24.8784 20.8696 25.6528 21.8249 25.6528Z" fill="black"/>
</svg>
