<svg width="176" height="31" viewBox="0 0 176 31" fill="none" xmlns="http://www.w3.org/2000/svg">
<path d="M38.4047 21.2188C37.0837 20.4165 36.0613 19.2784 35.3411 17.8007C34.6209 16.3231 34.2627 14.6103 34.2627 12.6625C34.2627 10.7146 34.6396 8.99066 35.3971 7.49433C36.1546 6.00172 37.1919 4.84123 38.5129 4.02403C39.8338 3.2031 41.3339 2.79263 43.0093 2.79263C45.0318 2.79263 46.7856 3.36728 48.2708 4.51659C49.7559 5.66589 50.7821 7.24058 51.3455 9.2444L47.711 10.528C47.42 9.28918 46.8528 8.32272 46.0169 7.63239C45.1773 6.93833 44.1773 6.59503 43.0093 6.59503C42.0429 6.59503 41.1884 6.83012 40.4383 7.30402C39.692 7.77792 39.1062 8.47198 38.6883 9.38246C38.2703 10.293 38.0614 11.3676 38.0614 12.6065C38.0614 14.5021 38.4942 15.9648 39.3599 16.9947C40.2256 18.0246 41.4421 18.5396 43.0093 18.5396C44.1213 18.5396 45.0654 18.2746 45.8378 17.7485C46.614 17.2186 47.1812 16.4462 47.5468 15.4238H44.4833V11.6773H51.7821V22.2039H48.8044L48.1476 20.2896C46.6699 21.7113 44.9572 22.4203 43.0093 22.4203C41.2593 22.4203 39.7256 22.0211 38.4047 21.2188Z" fill="white"/>
<path d="M56.036 21.6964C55.1143 21.1778 54.3606 20.3755 53.7672 19.2896C53.1739 18.2038 52.8792 16.8604 52.8792 15.2559C52.8792 13.8715 53.1404 12.6326 53.659 11.5393C54.1777 10.446 54.8979 9.59518 55.8196 8.98322C56.7413 8.37125 57.7749 8.069 58.9204 8.069C59.76 8.069 60.4951 8.23692 61.1332 8.57648C61.7713 8.91232 62.3348 9.47578 62.8273 10.2557L63.6483 8.3414H66.5999V18.4276C66.5999 19.1926 66.9282 19.577 67.585 19.577C67.6559 19.577 67.7865 19.5583 67.9693 19.521V22.2002C67.4245 22.4204 66.8574 22.5286 66.2752 22.5286C65.473 22.5286 64.7565 22.3271 64.1296 21.9278C63.5027 21.5285 63.0661 20.9427 62.8311 20.1777C62.3945 20.9427 61.8086 21.5173 61.081 21.9017C60.3533 22.286 59.6332 22.4763 58.9204 22.4763C57.9167 22.4763 56.9577 22.2151 56.036 21.6964ZM57.5958 17.9911C58.2077 18.6291 58.9652 18.9463 59.8794 18.9463C60.7937 18.9463 61.484 18.6329 62.0101 18.0023C62.54 17.3716 62.8012 16.4574 62.8012 15.2559C62.8012 14.0543 62.5363 13.1364 62.0101 12.5095C61.4803 11.8826 60.7713 11.5654 59.8794 11.5654C58.9876 11.5654 58.2077 11.8863 57.5958 12.5207C56.9838 13.1588 56.6815 14.0693 56.6815 15.2559C56.6815 16.4425 56.9875 17.353 57.5958 17.9911Z" fill="white"/>
<path d="M79.4624 8.68469C80.2199 9.09516 80.8281 9.74817 81.2945 10.64C81.761 11.5318 81.9923 12.6625 81.9923 14.0282V22.2002H78.1937V15.1215C78.1937 13.9573 77.9548 13.0953 77.4847 12.5393C77.0108 11.9833 76.3652 11.7072 75.5443 11.7072C74.7234 11.7072 74.0778 11.9871 73.6039 12.5393C73.13 13.0953 72.8949 13.9573 72.8949 15.1215V22.2002H69.0664V8.34512H72.0479L72.8688 10.2594C73.2867 9.6213 73.88 9.09889 74.645 8.68842C75.41 8.27796 76.2048 8.07272 77.022 8.07272C77.8951 8.07272 78.7123 8.27796 79.4698 8.68842L79.4624 8.68469Z" fill="white"/>
<path d="M86.0522 21.6032C85.1305 20.9464 84.4066 20.0583 83.8804 18.9389C83.3506 17.8194 83.0894 16.6029 83.0894 15.2895C83.0894 13.976 83.3618 12.6849 83.9103 11.5729C84.4551 10.4609 85.1977 9.58772 86.138 8.94963C87.0746 8.31155 88.1008 7.99437 89.2128 7.99437C89.9591 7.99437 90.6792 8.16229 91.3733 8.50185C92.0673 8.83769 92.6233 9.37129 93.0413 10.1027V3.06879H96.8399V22.2039H93.8585L93.0375 20.2897C92.5263 21.0733 91.9591 21.6517 91.3285 22.0248C90.7016 22.398 89.974 22.5845 89.1568 22.5845C88.0075 22.5845 86.9738 22.2562 86.0559 21.5994L86.0522 21.6032ZM87.8022 18.0209C88.4142 18.659 89.1717 18.9762 90.0859 18.9762C91.0001 18.9762 91.6905 18.6627 92.2166 18.0321C92.7465 17.4015 93.0077 16.4873 93.0077 15.2857C93.0077 14.0842 92.7428 13.1662 92.2166 12.5393C91.6867 11.9124 90.9778 11.5953 90.0859 11.5953C89.1941 11.5953 88.4142 11.9162 87.8022 12.5505C87.1903 13.1886 86.888 14.0991 86.888 15.2857C86.888 16.4723 87.194 17.3828 87.8022 18.0209Z" fill="white"/>
<path d="M101.086 21.6964C100.165 21.1778 99.4109 20.3755 98.8175 19.2896C98.2242 18.2038 97.9294 16.8604 97.9294 15.2559C97.9294 13.8715 98.1906 12.6326 98.7093 11.5393C99.228 10.446 99.9482 9.59518 100.87 8.98322C101.792 8.37125 102.825 8.069 103.971 8.069C104.81 8.069 105.545 8.23692 106.184 8.57648C106.822 8.91232 107.385 9.47578 107.878 10.2557L108.699 8.3414H111.65V18.4276C111.65 19.1926 111.979 19.577 112.635 19.577C112.706 19.577 112.837 19.5583 113.02 19.521V22.2002C112.475 22.4204 111.908 22.5286 111.326 22.5286C110.523 22.5286 109.807 22.3271 109.18 21.9278C108.553 21.5285 108.116 20.9427 107.881 20.1777C107.445 20.9427 106.859 21.5173 106.131 21.9017C105.404 22.286 104.683 22.4763 103.971 22.4763C102.967 22.4763 102.008 22.2151 101.086 21.6964ZM102.646 17.9911C103.258 18.6291 104.016 18.9463 104.93 18.9463C105.844 18.9463 106.534 18.6329 107.06 18.0023C107.59 17.3716 107.852 16.4574 107.852 15.2559C107.852 14.0543 107.587 13.1364 107.06 12.5095C106.531 11.8826 105.822 11.5654 104.93 11.5654C104.038 11.5654 103.258 11.8863 102.646 12.5207C102.034 13.1588 101.732 14.0693 101.732 15.2559C101.732 16.4425 102.038 17.353 102.646 17.9911Z" fill="white"/>
<path d="M118.651 22.4502C117.337 22.4502 116.255 22.0547 115.397 21.2599C114.538 20.4688 114.113 19.1851 114.113 17.4201V3.06879H117.886V17.3119C117.886 18.0396 118.095 18.5508 118.512 18.8418C118.93 19.1329 119.423 19.2784 119.99 19.2784C120.192 19.2784 120.401 19.2598 120.621 19.2225V22.1741C120.02 22.3569 119.363 22.4465 118.654 22.4465L118.651 22.4502Z" fill="white"/>
<path d="M136.61 3.06879H139.644L146.316 22.2039H142.133L140.849 18.5956H135.383L134.099 22.2039H129.916L136.614 3.06879H136.61ZM139.562 14.7969L138.114 9.38622L136.666 14.7969H139.566H139.562Z" fill="white"/>
<path d="M158.193 8.94589C159.115 9.60264 159.839 10.4907 160.365 11.6102C160.895 12.7296 161.156 13.9461 161.156 15.2596C161.156 16.5731 160.884 17.8679 160.335 18.9762C159.787 20.0882 159.044 20.9613 158.107 21.5994C157.167 22.2375 156.145 22.5547 155.033 22.5547C154.286 22.5547 153.566 22.3868 152.872 22.0472C152.178 21.7114 151.622 21.1778 151.204 20.4464V27.4728H147.406V8.34512H150.387L151.208 10.2594C151.719 9.47577 152.286 8.89738 152.917 8.52423C153.548 8.15108 154.271 7.96451 155.089 7.96451C156.238 7.96451 157.272 8.29288 158.19 8.94962L158.193 8.94589ZM152.029 18.0097C152.559 18.6366 153.268 18.9538 154.16 18.9538C155.051 18.9538 155.831 18.6366 156.443 17.9985C157.055 17.3604 157.357 16.4499 157.357 15.2633C157.357 14.0767 157.051 13.1662 156.443 12.5281C155.831 11.89 155.07 11.5729 154.16 11.5729C153.249 11.5729 152.555 11.8863 152.029 12.5169C151.499 13.1476 151.238 14.0618 151.238 15.2633C151.238 16.4649 151.503 17.3828 152.029 18.0097Z" fill="white"/>
<path d="M173.037 8.94589C173.959 9.60264 174.683 10.4907 175.209 11.6102C175.739 12.7296 176 13.9461 176 15.2596C176 16.5731 175.728 17.8679 175.179 18.9762C174.631 20.0882 173.888 20.9613 172.951 21.5994C172.011 22.2375 170.989 22.5547 169.877 22.5547C169.13 22.5547 168.41 22.3868 167.716 22.0472C167.022 21.7114 166.466 21.1778 166.048 20.4464V27.4728H162.25V8.34512H165.231L166.052 10.2594C166.563 9.47577 167.13 8.89738 167.761 8.52423C168.392 8.15108 169.115 7.96451 169.933 7.96451C171.082 7.96451 172.116 8.29288 173.034 8.94962L173.037 8.94589ZM166.873 18.0097C167.403 18.6366 168.112 18.9538 169.004 18.9538C169.895 18.9538 170.675 18.6366 171.287 17.9985C171.899 17.3604 172.201 16.4499 172.201 15.2633C172.201 14.0767 171.895 13.1662 171.287 12.5281C170.675 11.89 169.914 11.5729 169.004 11.5729C168.093 11.5729 167.399 11.8863 166.873 12.5169C166.343 13.1476 166.082 14.0618 166.082 15.2633C166.082 16.4649 166.347 17.3828 166.873 18.0097Z" fill="white"/>
<path d="M30.1692 20.0471C24.7436 20.1441 20.3665 15.7894 20.3105 10.3489C25.057 9.30037 30.7102 14.7782 30.1692 20.0471Z" fill="#84EB05"/>
<path d="M10.2056 9.96459C9.98921 4.49048 14.717 -0.233602 20.0232 0.00894605C20.7994 4.3151 16.0044 10.2183 10.2056 9.96086V9.96459Z" fill="#84EB05"/>
<path d="M0 10.3377C5.17559 9.73698 10.2728 14.7894 9.86609 19.9725C4.91066 20.5434 0.097019 15.9014 0 10.3377Z" fill="#84EB05"/>
<path d="M10.284 30.2042C9.75786 25.1182 14.5193 20.2598 19.9262 20.3755C20.9225 25.4652 14.7954 30.9468 10.284 30.2042Z" fill="#84EB05"/>
</svg>
