<svg width="30" height="30" viewBox="0 0 30 30" fill="none" xmlns="http://www.w3.org/2000/svg">
<path d="M8.2612 24.7425C6.71339 25.6313 4.9687 25.95 3.93558 26.0644C4.04995 25.0313 4.3687 23.2866 5.25651 21.7378C5.48901 21.3338 5.34933 20.8181 4.94526 20.5856C4.53745 20.3522 4.02464 20.4938 3.79308 20.8978C2.20308 23.6709 2.18433 26.8378 2.18433 26.9719C2.18433 27.4378 2.56214 27.8156 3.02808 27.8156C3.16214 27.8156 6.32901 27.7969 9.10214 26.2069C9.5062 25.9744 9.64589 25.4597 9.41339 25.0547C9.18276 24.6506 8.66808 24.51 8.2612 24.7425Z" fill="black"/>
<path d="M28.9771 3.07032C28.9874 2.51626 28.7783 1.99688 28.3883 1.60782C27.9993 1.21876 27.4368 1.02657 26.9286 1.02188C24.5924 1.06594 18.2905 1.73626 12.328 7.08844C11.2649 6.67501 9.66271 6.06094 8.44677 6.21751C6.65802 6.44719 4.01521 8.88094 1.42677 11.4778C1.08365 11.8219 0.946772 12.3094 1.06208 12.7819C1.17646 13.2563 1.52333 13.6284 1.98833 13.7775L6.10396 15.0994C5.79365 15.6656 5.48802 16.245 5.19271 16.8563C4.82146 17.625 4.97896 18.5484 5.58458 19.1522L10.8468 24.4144C11.233 24.8016 11.7505 25.0059 12.2727 25.0059C12.568 25.0059 12.8661 24.9413 13.1436 24.8072C13.7549 24.5119 14.3343 24.2063 14.8986 23.8969L16.2215 28.0116C16.3705 28.4766 16.7427 28.8234 17.218 28.9388C17.3277 28.965 17.4383 28.9781 17.549 28.9781C17.9099 28.9781 18.2577 28.8366 18.5221 28.5731C21.119 25.9847 23.5527 23.3428 23.7815 21.555C23.9399 20.3278 23.324 18.735 22.9105 17.6719C28.2618 11.7094 28.933 5.40751 28.9771 3.07032ZM2.9699 12.3216C4.34333 10.9538 7.32646 8.06344 8.66146 7.89188C9.25677 7.81594 10.1915 8.09813 10.9808 8.38407C9.58677 9.82501 8.23302 11.5519 6.97115 13.6059L2.9699 12.3216ZM12.4096 23.2875C12.2905 23.3456 12.1377 23.3194 12.0402 23.2219L6.77708 17.9588C6.68052 17.8622 6.65333 17.7103 6.7124 17.5894C13.2665 4.01344 23.8677 2.76844 26.9615 2.71032H26.969C27.0805 2.71032 27.1536 2.76001 27.1968 2.80313C27.2324 2.83876 27.2933 2.91751 27.2915 3.03938C27.2315 6.13313 25.9855 16.7344 12.4096 23.2875ZM22.108 21.3394C21.9365 22.6734 19.0461 25.6575 17.6783 27.03L16.3921 23.0297C18.448 21.7678 20.1749 20.4131 21.6158 19.0191C21.9027 19.8075 22.1849 20.7403 22.108 21.3394Z" fill="black"/>
<path d="M22.62 12.3881C24 11.0072 24 8.76094 22.62 7.38001C21.2812 6.04313 18.9487 6.04313 17.6118 7.38001C16.9434 8.04844 16.575 8.93813 16.575 9.88407C16.575 10.83 16.9443 11.7197 17.6118 12.3881C18.2803 13.0566 19.17 13.425 20.1159 13.425C21.0618 13.425 21.9506 13.0566 22.62 12.3881ZM21.4256 11.1947C20.7253 11.8959 19.5037 11.8959 18.8053 11.1947C18.4546 10.845 18.2615 10.3791 18.2615 9.88407C18.2615 9.38907 18.4546 8.92407 18.8053 8.57344C19.155 8.22376 19.62 8.03063 20.115 8.03063C20.609 8.03063 21.075 8.22376 21.4246 8.57344C22.1484 9.29626 22.1484 10.4719 21.4256 11.1947Z" fill="black"/>
</svg>
