<svg width="30" height="30" viewBox="0 0 30 30" fill="none" xmlns="http://www.w3.org/2000/svg">
<path d="M26.3598 7.70438L18.166 1.98469C16.2723 0.662817 13.7279 0.662817 11.8342 1.98469L3.63948 7.70438C2.15823 8.73938 1.27417 10.4344 1.27417 12.2409V23.4375C1.27417 26.4872 3.75573 28.9688 6.80542 28.9688H10.1232H19.877H23.1948C26.2445 28.9688 28.726 26.4872 28.726 23.4375V12.2409C28.727 10.4344 27.842 8.73844 26.3598 7.70438ZM10.967 27.2813V18.7341C10.967 18.1238 11.4629 17.6259 12.0742 17.6259H17.926C18.5364 17.6259 19.0332 18.1228 19.0332 18.7341V27.2813H10.967ZM27.0385 23.4375C27.0385 25.5572 25.3145 27.2813 23.1948 27.2813H20.7207V18.7341C20.7207 17.1919 19.4664 15.9384 17.926 15.9384H12.0742C10.5329 15.9384 9.27948 17.1928 9.27948 18.7341V27.2813H6.80542C4.68573 27.2813 2.96167 25.5572 2.96167 23.4375V12.2409C2.96167 10.9856 3.57573 9.80719 4.60511 9.08907L12.7998 3.36938H12.8007C13.4579 2.91 14.2285 2.68032 15.0001 2.68032C15.7717 2.68032 16.5423 2.91 17.2004 3.36938L25.3942 9.08907C26.4245 9.80813 27.0385 10.9856 27.0385 12.2409V23.4375Z" fill="black"/>
</svg>
