<svg width="14" height="20" viewBox="0 0 14 20" fill="none" xmlns="http://www.w3.org/2000/svg">
<path d="M6.71775 20C6.42826 20 6.18578 19.9019 5.99029 19.7057C5.79412 19.5102 5.69604 19.2678 5.69604 18.9783V3.47382L1.71137 7.43295C1.52405 7.62026 1.28974 7.71834 1.00843 7.7272C0.727799 7.73537 0.485312 7.63729 0.28097 7.43295C0.0936564 7.24563 0 7.00723 0 6.71775C0 6.42826 0.0936564 6.18986 0.28097 6.00255L6.00255 0.280971C6.10472 0.178799 6.21541 0.106258 6.33461 0.0633461C6.45381 0.0211154 6.58152 0 6.71775 0C6.85398 0 6.98169 0.0211154 7.10089 0.0633461C7.22009 0.106258 7.33077 0.178799 7.43295 0.280971L13.1545 6.00255C13.3418 6.18986 13.4355 6.42384 13.4355 6.70447C13.4355 6.98578 13.3418 7.2286 13.1545 7.43295C12.9502 7.63729 12.7074 7.73946 12.426 7.73946C12.1454 7.73946 11.9029 7.63729 11.6986 7.43295L7.73946 3.47382V18.9783C7.73946 19.2678 7.64172 19.5102 7.44623 19.7057C7.25006 19.9019 7.00723 20 6.71775 20Z" fill="#001828"/>
</svg>
