<svg width="74" height="74" viewBox="0 0 74 74" fill="none" xmlns="http://www.w3.org/2000/svg">
<path d="M37 0C16.5646 0 0 16.5646 0 37C0 57.4354 16.5646 74 37 74C57.4354 74 74 57.4354 74 37C74 16.5646 57.4354 0 37 0ZM51.0543 39.5615H39.5615V51.0515C39.5615 52.466 38.4145 53.613 37 53.613C35.5855 53.613 34.4385 52.466 34.4385 51.0515V39.5615H22.9457C21.5312 39.5615 20.3842 38.4145 20.3842 37C20.3842 35.5855 21.5312 34.4385 22.9457 34.4385H34.4385V22.9485C34.4385 21.534 35.5855 20.387 37 20.387C38.4145 20.387 39.5615 21.534 39.5615 22.9485V34.4385H51.0543C52.4688 34.4385 53.6158 35.5855 53.6158 37C53.6158 38.4145 52.4688 39.5615 51.0543 39.5615Z" fill="#81F200"/>
</svg>
