<svg width="14" height="15" viewBox="0 0 14 15" fill="none" xmlns="http://www.w3.org/2000/svg">
<path d="M13.8505 13.4165L11.5657 10.9215C12.6335 9.76139 13.2895 8.22714 13.2895 6.53886C13.289 2.92732 10.3143 0 6.6445 0C2.97472 0 0 2.92732 0 6.53886C0 10.1504 2.97472 13.0777 6.6445 13.0777C8.2301 13.0777 9.68438 12.5293 10.8267 11.6175L13.1273 14.1283C13.3268 14.3248 13.6506 14.3248 13.85 14.1283C14.05 13.9319 14.05 13.613 13.8505 13.4165ZM6.6445 12.0717C3.53947 12.0717 1.02235 9.59456 1.02235 6.53886C1.02235 3.48316 3.53947 1.00604 6.6445 1.00604C9.74957 1.00604 12.2667 3.48316 12.2667 6.53886C12.2667 9.59456 9.74957 12.0717 6.6445 12.0717Z" fill="black"/>
</svg>
