<svg width="295" height="155" viewBox="0 0 295 155" fill="none" xmlns="http://www.w3.org/2000/svg">
<path d="M8.62073 141.293C5.87142 139.623 3.74342 137.254 2.2445 134.179C0.745576 131.103 0 127.539 0 123.484C0 119.43 0.78441 115.842 2.36099 112.728C3.93758 109.621 6.09664 107.206 8.84596 105.505C11.5953 103.797 14.7174 102.942 18.2045 102.942C22.4139 102.942 26.0641 104.138 29.1552 106.53C32.2462 108.922 34.382 112.2 35.5547 116.37L27.9902 119.042C27.3844 116.464 26.2039 114.452 24.4642 113.015C22.7168 111.571 20.6354 110.856 18.2045 110.856C16.193 110.856 14.4145 111.346 12.8534 112.332C11.3002 113.318 10.0808 114.763 9.21098 116.658C8.34114 118.553 7.90622 120.79 7.90622 123.368C7.90622 127.313 8.80713 130.358 10.6089 132.501C12.4108 134.645 14.9426 135.717 18.2045 135.717C20.5189 135.717 22.4838 135.165 24.0915 134.07C25.7069 132.967 26.8874 131.36 27.6485 129.232H21.2722V121.434H36.4634V143.343H30.2658L28.8989 139.359C25.8234 142.318 22.2586 143.794 18.2045 143.794C14.562 143.794 11.37 142.963 8.62073 141.293Z" fill="white"/>
<path d="M45.3171 142.287C43.3988 141.207 41.83 139.538 40.5951 137.278C39.3602 135.018 38.7467 132.222 38.7467 128.882C38.7467 126.001 39.2903 123.422 40.3699 121.147C41.4494 118.871 42.9483 117.1 44.8666 115.827C46.7849 114.553 48.9362 113.924 51.3205 113.924C53.068 113.924 54.598 114.273 55.926 114.98C57.2541 115.679 58.4268 116.852 59.452 118.475L61.1606 114.491H67.3038V135.484C67.3038 137.076 67.9873 137.876 69.3542 137.876C69.5017 137.876 69.7736 137.837 70.1541 137.759V143.335C69.0202 143.794 67.8397 144.019 66.6282 144.019C64.9584 144.019 63.4672 143.6 62.1625 142.769C60.8577 141.937 59.949 140.718 59.4597 139.126C58.5511 140.718 57.3317 141.914 55.8173 142.714C54.3028 143.514 52.8039 143.91 51.3205 143.91C49.2314 143.91 47.2354 143.367 45.3171 142.287ZM48.5635 134.575C49.8371 135.903 51.4137 136.563 53.3165 136.563C55.2193 136.563 56.6561 135.911 57.7511 134.598C58.854 133.286 59.3976 131.383 59.3976 128.882C59.3976 126.381 58.8462 124.471 57.7511 123.166C56.6483 121.861 55.1727 121.201 53.3165 121.201C51.4603 121.201 49.8371 121.869 48.5635 123.189C47.2898 124.517 46.6607 126.412 46.6607 128.882C46.6607 131.352 47.2975 133.247 48.5635 134.575Z" fill="white"/>
<path d="M94.0823 115.205C95.6589 116.06 96.9248 117.419 97.8956 119.275C98.8665 121.131 99.348 123.484 99.348 126.327V143.335H91.4418V128.603C91.4418 126.179 90.9447 124.385 89.9661 123.228C88.9798 122.071 87.6362 121.496 85.9276 121.496C84.219 121.496 82.8754 122.079 81.889 123.228C80.9027 124.385 80.4134 126.179 80.4134 128.603V143.335H72.4451V114.491H78.6504L80.3591 118.475C81.2289 117.147 82.4638 116.06 84.0559 115.205C85.648 114.351 87.3022 113.924 89.0031 113.924C90.8204 113.924 92.5213 114.351 94.0979 115.205H94.0823Z" fill="white"/>
<path d="M107.79 142.093C105.872 140.726 104.365 138.878 103.27 136.548C102.167 134.218 101.624 131.686 101.624 128.952C101.624 126.218 102.191 123.531 103.332 121.217C104.466 118.902 106.012 117.085 107.969 115.757C109.918 114.429 112.054 113.769 114.368 113.769C115.922 113.769 117.421 114.118 118.865 114.825C120.31 115.524 121.467 116.634 122.337 118.157V103.533H130.243V143.359H124.038L122.329 139.375C121.265 141.006 120.085 142.209 118.772 142.986C117.467 143.763 115.953 144.151 114.252 144.151C111.86 144.151 109.709 143.467 107.798 142.101L107.79 142.093ZM111.433 134.637C112.706 135.965 114.283 136.625 116.186 136.625C118.089 136.625 119.525 135.973 120.62 134.66C121.723 133.348 122.267 131.445 122.267 128.944C122.267 126.443 121.715 124.533 120.62 123.228C119.518 121.923 118.042 121.263 116.186 121.263C114.33 121.263 112.706 121.931 111.433 123.251C110.159 124.58 109.53 126.475 109.53 128.944C109.53 131.414 110.167 133.309 111.433 134.637Z" fill="white"/>
<path d="M139.081 142.287C137.163 141.207 135.594 139.538 134.359 137.278C133.125 135.018 132.511 132.222 132.511 128.882C132.511 126.001 133.055 123.422 134.134 121.147C135.214 118.871 136.713 117.1 138.631 115.827C140.549 114.553 142.701 113.924 145.085 113.924C146.832 113.924 148.362 114.273 149.69 114.98C151.018 115.679 152.191 116.852 153.216 118.475L154.925 114.491H161.068V135.484C161.068 137.076 161.752 137.876 163.118 137.876C163.266 137.876 163.538 137.837 163.918 137.759V143.335C162.784 143.794 161.604 144.019 160.392 144.019C158.723 144.019 157.231 143.6 155.927 142.769C154.622 141.937 153.713 140.718 153.224 139.126C152.315 140.718 151.096 141.914 149.582 142.714C148.067 143.514 146.568 143.91 145.085 143.91C142.996 143.91 141 143.367 139.081 142.287ZM142.328 134.575C143.601 135.903 145.178 136.563 147.081 136.563C148.984 136.563 150.42 135.911 151.515 134.598C152.618 133.286 153.162 131.383 153.162 128.882C153.162 126.381 152.61 124.471 151.515 123.166C150.413 121.861 148.937 121.201 147.081 121.201C145.225 121.201 143.601 121.869 142.328 123.189C141.054 124.517 140.425 126.412 140.425 128.882C140.425 131.352 141.062 133.247 142.328 134.575Z" fill="white"/>
<path d="M175.638 143.856C172.904 143.856 170.652 143.033 168.865 141.378C167.079 139.732 166.194 137.06 166.194 133.387V103.517H174.045V133.161C174.045 134.676 174.48 135.74 175.35 136.346C176.22 136.951 177.245 137.254 178.426 137.254C178.845 137.254 179.28 137.216 179.738 137.138V143.281C178.488 143.662 177.121 143.848 175.645 143.848L175.638 143.856Z" fill="white"/>
<path d="M213.017 103.517H219.332L233.218 143.343H224.512L221.84 135.833H210.462L207.791 143.343H199.084L213.025 103.517H213.017ZM219.161 127.927L216.147 116.666L213.134 127.927H219.168H219.161Z" fill="white"/>
<path d="M257.938 115.749C259.857 117.116 261.363 118.964 262.458 121.294C263.561 123.624 264.105 126.156 264.105 128.89C264.105 131.624 263.538 134.319 262.396 136.625C261.255 138.94 259.709 140.757 257.76 142.085C255.803 143.413 253.675 144.073 251.36 144.073C249.807 144.073 248.308 143.724 246.864 143.017C245.419 142.318 244.262 141.207 243.392 139.685V154.309H235.486V114.483H241.691L243.4 118.467C244.464 116.836 245.644 115.633 246.957 114.856C248.269 114.079 249.776 113.691 251.477 113.691C253.869 113.691 256.02 114.374 257.931 115.741L257.938 115.749ZM245.108 134.614C246.211 135.919 247.687 136.579 249.543 136.579C251.399 136.579 253.022 135.919 254.296 134.59C255.57 133.262 256.199 131.367 256.199 128.898C256.199 126.428 255.562 124.533 254.296 123.205C253.022 121.877 251.438 121.217 249.543 121.217C247.648 121.217 246.203 121.869 245.108 123.182C244.005 124.494 243.462 126.397 243.462 128.898C243.462 131.398 244.013 133.309 245.108 134.614Z" fill="white"/>
<path d="M288.833 115.749C290.752 117.116 292.258 118.964 293.354 121.294C294.456 123.624 295 126.156 295 128.89C295 131.624 294.433 134.319 293.291 136.625C292.15 138.94 290.604 140.757 288.655 142.085C286.698 143.413 284.57 144.073 282.255 144.073C280.702 144.073 279.203 143.724 277.759 143.017C276.314 142.318 275.157 141.207 274.287 139.685V154.309H266.381V114.483H272.586L274.295 118.467C275.359 116.836 276.539 115.633 277.852 114.856C279.164 114.079 280.671 113.691 282.372 113.691C284.764 113.691 286.915 114.374 288.826 115.741L288.833 115.749ZM276.003 134.614C277.106 135.919 278.582 136.579 280.438 136.579C282.294 136.579 283.917 135.919 285.191 134.59C286.465 133.262 287.094 131.367 287.094 128.898C287.094 126.428 286.457 124.533 285.191 123.205C283.917 121.877 282.333 121.217 280.438 121.217C278.543 121.217 277.098 121.869 276.003 123.182C274.901 124.494 274.357 126.397 274.357 128.898C274.357 131.398 274.908 133.309 276.003 134.614Z" fill="white"/>
<path d="M189.043 55.2677C174.085 55.5396 162.023 43.5249 161.868 28.5279C174.955 25.6388 190.542 40.7368 189.043 55.2677Z" fill="#84EB05"/>
<path d="M134.002 27.464C133.404 12.3738 146.436 -0.650509 161.076 0.0251705C163.212 11.9 149.993 28.1707 134.002 27.464Z" fill="#84EB05"/>
<path d="M105.864 28.4969C120.131 26.8426 134.18 40.7756 133.062 55.0581C119.393 56.6346 106.128 43.8356 105.864 28.4969Z" fill="#84EB05"/>
<path d="M134.219 83.2735C132.767 69.2473 145.9 55.858 160.796 56.1764C163.545 70.2104 146.653 85.3238 134.219 83.2735Z" fill="#84EB05"/>
</svg>
