<svg width="14" height="7" viewBox="0 0 14 7" fill="none" xmlns="http://www.w3.org/2000/svg">
<path d="M1.71237e-05 0.971768C0.000845875 0.77877 0.0602979 0.590345 0.170854 0.43032C0.28141 0.270295 0.438107 0.145857 0.621128 0.0727398C0.804151 -0.000377033 1.00528 -0.0188888 1.19908 0.0195456C1.39288 0.05798 1.57065 0.151634 1.70992 0.288666L6.28965 4.77762C6.38261 4.86908 6.49321 4.94168 6.61506 4.99122C6.73691 5.04077 6.86761 5.06628 6.99961 5.06628C7.13162 5.06628 7.26231 5.04077 7.38417 4.99122C7.50602 4.94168 7.61661 4.86908 7.70957 4.77762L12.2893 0.288666C12.3823 0.197201 12.4929 0.124603 12.6147 0.0750595C12.7366 0.0255164 12.8673 8.94338e-06 12.9993 8.94915e-06C13.1313 8.95492e-06 13.262 0.0255164 13.3838 0.0750595C13.5057 0.124603 13.6163 0.197201 13.7092 0.288666C13.8955 0.471506 14 0.718839 14 0.976647C14 1.23445 13.8955 1.48179 13.7092 1.66463L9.11949 6.14382C8.55702 6.69206 7.79457 7 6.99961 7C6.20466 7 5.4422 6.69206 4.87973 6.14382L0.290001 1.66463C0.197325 1.57344 0.124002 1.4653 0.0742406 1.34641C0.0244789 1.22751 -0.000743914 1.1002 1.71237e-05 0.971768Z" fill="white"/>
</svg>
