<svg width="50" height="50" viewBox="0 0 50 50" fill="none" xmlns="http://www.w3.org/2000/svg">
<g clip-path="url(#clip0_282_470)">
<path d="M6.24999 8.33333V2.08333H10.4167V8.33333H16.6667V12.5H10.4167V18.75H6.24999V12.5H0V8.33333H6.24999ZM12.5 20.8333V14.5833H18.75V8.33333H33.3333L37.1458 12.5H43.75C46.0416 12.5 47.9166 14.375 47.9166 16.6667V41.6667C47.9166 43.9583 46.0416 45.8333 43.75 45.8333H10.4167C8.12499 45.8333 6.24999 43.9583 6.24999 41.6667V20.8333H12.5ZM27.0833 39.5833C32.8333 39.5833 37.5 34.9167 37.5 29.1667C37.5 23.4167 32.8333 18.75 27.0833 18.75C21.3333 18.75 16.6667 23.4167 16.6667 29.1667C16.6667 34.9167 21.3333 39.5833 27.0833 39.5833ZM20.4166 29.1667C20.4166 32.8542 23.3958 35.8333 27.0833 35.8333C30.7708 35.8333 33.75 32.8542 33.75 29.1667C33.75 25.4792 30.7708 22.5 27.0833 22.5C23.3958 22.5 20.4166 25.4792 20.4166 29.1667Z" fill="#001828" fill-opacity="0.29"/>
</g>
<defs>
<clipPath id="clip0_282_470">
<rect width="50" height="50" fill="white"/>
</clipPath>
</defs>
</svg>
