<svg width="11" height="19" viewBox="0 0 11 19" fill="none" xmlns="http://www.w3.org/2000/svg">
<path d="M9.7062 0.000327167C9.9584 -0.00584919 10.2061 0.0755554 10.4148 0.233349C10.6235 0.391142 10.7828 0.617525 10.8707 0.880822C10.9585 1.14412 10.9705 1.43131 10.905 1.70255C10.8395 1.97379 10.6997 2.21545 10.505 2.39414L3.07841 9.47815L10.505 16.5597C10.6397 16.6699 10.7524 16.8097 10.8363 16.9707C10.9201 17.1316 10.9731 17.3102 10.9921 17.495C11.0111 17.6799 10.9956 17.8671 10.9466 18.0449C10.8976 18.2228 10.8162 18.3875 10.7074 18.5287C10.5986 18.6699 10.4647 18.7845 10.3143 18.8654C10.1638 18.9464 9.99998 18.9918 9.833 18.999C9.66603 19.0062 9.49953 18.975 9.34392 18.9072C9.18831 18.8394 9.04695 18.7366 8.92869 18.6051L0.425868 10.5048C0.292341 10.378 0.185119 10.2205 0.111596 10.043C0.0380726 9.86553 0 9.67235 0 9.4769C0 9.28145 0.0380726 9.08827 0.111596 8.91079C0.185119 8.73331 0.292341 8.57568 0.425868 8.4488L8.92869 0.340741C9.14348 0.128312 9.41899 0.00785321 9.7062 0.000327167Z" fill="white"/>
</svg>
