<svg width="30" height="30" viewBox="0 0 30 30" fill="none" xmlns="http://www.w3.org/2000/svg">
<path d="M21.4237 9.58594H8.57617C8.11023 9.58594 7.73242 9.96375 7.73242 10.4297C7.73242 10.8956 8.11023 11.2734 8.57617 11.2734H21.4227C21.8887 11.2734 22.2665 10.8956 22.2665 10.4297C22.2665 9.96375 21.8896 9.58594 21.4237 9.58594Z" fill="#001828"/>
<path d="M18.6806 13.7841H11.3193C10.8534 13.7841 10.4756 14.1619 10.4756 14.6278C10.4756 15.0937 10.8534 15.4716 11.3193 15.4716H18.6806C19.1465 15.4716 19.5243 15.0937 19.5243 14.6278C19.5243 14.1619 19.1465 13.7841 18.6806 13.7841Z" fill="#001828"/>
<path d="M24.375 1.47H5.625C3.09188 1.47 1.03125 3.53063 1.03125 6.06375V18.9928C1.03125 21.5259 3.09188 23.5866 5.625 23.5866H9.27094L9.1725 26.6887C9.15 27.3797 9.51656 28.0078 10.1306 28.3275C10.3922 28.4634 10.6744 28.53 10.9547 28.53C11.3306 28.53 11.7047 28.4091 12.0225 28.17L18.1219 23.5866H24.375C26.9081 23.5866 28.9688 21.5259 28.9688 18.9928V6.06375C28.9688 3.53156 26.9081 1.47 24.375 1.47ZM27.2812 18.9928C27.2812 20.595 25.9772 21.8991 24.375 21.8991H17.8387C17.6559 21.8991 17.4778 21.9581 17.3316 22.0688L11.0072 26.8219C10.9913 26.8322 10.9603 26.8575 10.9087 26.8303C10.8562 26.8031 10.8572 26.7638 10.8581 26.7441L10.9856 22.7709C10.9931 22.5422 10.9078 22.3209 10.7484 22.1569C10.5891 21.9928 10.3716 21.9 10.1428 21.9H5.625C4.02281 21.9 2.71875 20.5959 2.71875 18.9937V6.06375C2.71875 4.46156 4.02281 3.1575 5.625 3.1575H24.375C25.9772 3.1575 27.2812 4.46156 27.2812 6.06375V18.9928Z" fill="#001828"/>
</svg>
